# Blender v3.0.1 OBJ File: 'bridge-01.blend'
# www.blender.org
o Cube
v 1.000000 0.000000 -1.000000
v 1.000000 -0.250000 -1.000000
v 1.000000 0.000000 1.000000
v 1.000000 -0.250000 1.000000
v -1.000000 0.000000 -1.000000
v -1.000000 -0.250000 -1.000000
v -1.000000 0.000000 1.000000
v -1.000000 -0.250000 1.000000
vt 0.526288 0.417559
vt 0.473267 0.470580
vt 0.473267 0.417559
vt 0.526101 0.435489
vt 0.473080 0.428861
vt 0.526101 0.428861
vt 0.514466 0.416138
vt 0.507838 0.469159
vt 0.507838 0.416138
vt 0.526288 0.417853
vt 0.473267 0.470874
vt 0.473267 0.417853
vt 0.514328 0.416409
vt 0.507700 0.469430
vt 0.507700 0.416409
vt 0.526101 0.435345
vt 0.473080 0.428718
vt 0.526101 0.428718
vt 0.526288 0.470580
vt 0.473080 0.435489
vt 0.514466 0.469159
vt 0.526288 0.470874
vt 0.514327 0.469430
vt 0.473080 0.435345
vn 0.0000 1.0000 0.0000
vn 0.0000 0.0000 1.0000
vn -1.0000 0.0000 0.0000
vn 0.0000 -1.0000 0.0000
vn 1.0000 0.0000 0.0000
vn 0.0000 0.0000 -1.0000
s off
f 5/1/1 3/2/1 1/3/1
f 3/4/2 8/5/2 4/6/2
f 7/7/3 6/8/3 8/9/3
f 2/10/4 8/11/4 6/12/4
f 1/13/5 4/14/5 2/15/5
f 5/16/6 2/17/6 6/18/6
f 5/1/1 7/19/1 3/2/1
f 3/4/2 7/20/2 8/5/2
f 7/7/3 5/21/3 6/8/3
f 2/10/4 4/22/4 8/11/4
f 1/13/5 3/23/5 4/14/5
f 5/16/6 1/24/6 2/17/6
