# Blender v3.0.1 OBJ File: ''
# www.blender.org
mtllib centered_unit_cube-03.mtl
o Cube.001
v 0.500000 -0.500000 -0.500000
v 0.500000 -0.500000 0.500000
v -0.500000 -0.500000 0.500000
v -0.500000 -0.500000 -0.500000
v 0.500000 0.500000 -0.500000
v -0.500000 0.500000 -0.500000
v -0.500000 0.500000 0.500000
v 0.500000 0.500000 0.500000
vt 0.666666 0.000000
vt 0.666666 0.333333
vt 0.333333 0.333333
vt 0.333333 0.000000
vt 0.666666 1.000000
vt 0.333333 1.000000
vt 0.333333 0.666666
vt 0.666666 0.666666
vt 1.000000 0.333333
vt 1.000000 0.666666
vt 0.666666 0.666666
vt 0.666666 0.333333
vt 0.333333 0.666666
vt 0.333333 0.333333
vt 0.000000 0.666666
vt 0.000000 0.333333
vt 0.666666 0.333333
vt 0.666666 0.000000
vt 1.000000 0.000000
vt 1.000000 0.333333
vn 0.0000 -1.0000 -0.0000
vn 0.0000 1.0000 0.0000
vn 1.0000 0.0000 0.0000
vn 0.0000 -0.0000 1.0000
vn -1.0000 0.0000 0.0000
vn 0.0000 0.0000 -1.0000
usemtl Material.001
s off
f 1/1/1 2/2/1 3/3/1
f 1/1/1 3/3/1 4/4/1
f 5/5/2 6/6/2 7/7/2
f 5/5/2 7/7/2 8/8/2
f 1/9/3 5/10/3 8/11/3
f 1/9/3 8/11/3 2/12/3
f 2/12/4 8/11/4 7/13/4
f 2/12/4 7/13/4 3/14/4
f 3/3/5 7/7/5 6/15/5
f 3/3/5 6/15/5 4/16/5
f 5/17/6 1/18/6 4/19/6
f 5/17/6 4/19/6 6/20/6
