# Blender v3.0.1 OBJ File: 'pillar-1x1x3-01.blend'
# www.blender.org
mtllib pillar-1x1x3-01.mtl
o Cube
v 0.500000 3.000000 -0.500000
v 0.500000 0.000000 -0.500000
v 0.500000 3.000000 0.500000
v 0.500000 0.000000 0.500000
v -0.500000 3.000000 -0.500000
v -0.500000 0.000000 -0.500000
v -0.500000 3.000000 0.500000
v -0.500000 0.000000 0.500000
v -0.500000 2.750000 0.500000
v 0.500000 2.750000 -0.500000
v 0.500000 0.250000 0.500000
v -0.500000 2.750000 -0.500000
v -0.500000 0.250000 0.500000
v 0.500000 2.750000 0.500000
v -0.500000 0.250000 -0.500000
v 0.500000 0.250000 -0.500000
v -0.400000 0.375000 0.400000
v 0.400000 0.375000 0.400000
v -0.400000 0.375000 -0.400000
v 0.400000 0.375000 -0.400000
v 0.400000 2.625000 0.400000
v -0.400000 2.625000 0.400000
v 0.400000 2.625000 -0.400000
v -0.400000 2.625000 -0.400000
vt 0.750000 0.528062
vt 0.500000 0.778062
vt 0.500000 0.528062
vt 0.750000 0.479258
vt 0.525000 0.439239
vt 0.725000 0.439239
vt 0.500000 0.750000
vt 0.250000 0.687500
vt 0.500000 0.687500
vt 0.798804 0.778062
vt 0.954978 0.528062
vt 0.954978 0.778062
vt 0.250000 0.750000
vt 0.000000 0.687500
vt 0.250000 0.687500
vt 1.000000 0.479258
vt 0.775000 0.439239
vt 0.975000 0.439239
vt 0.500000 0.062500
vt 0.250000 0.000000
vt 0.500000 0.000000
vt 1.000000 0.528062
vt 0.750000 0.479258
vt 0.475000 0.656250
vt 0.275000 0.093750
vt 0.475000 0.093750
vt 0.750000 0.528062
vt 0.500000 0.479258
vt 0.525000 0.000000
vt 0.725000 0.000000
vt 0.250000 0.062500
vt 0.000000 0.000000
vt 0.250000 0.000000
vt 0.025000 0.656250
vt 0.225000 0.656250
vt 0.750000 0.778062
vt 0.798804 0.528062
vt 0.000000 1.000000
vt 0.048804 0.750000
vt 0.048804 1.000000
vt 0.275000 0.656250
vt 0.250000 0.062500
vt 0.225000 0.093750
vt 0.000000 0.062500
vt 0.048804 0.975000
vt 0.073804 0.750000
vt 0.073804 1.000000
vt 0.954978 0.753062
vt 0.979978 0.528062
vt 0.979978 0.778062
vt 0.775000 0.000000
vt 0.975000 0.000000
vt 0.025000 0.093750
vt 0.750000 0.778062
vt 0.250000 0.750000
vt 0.000000 0.750000
vt 0.750000 0.528062
vt 0.500000 0.528062
vt 0.750000 0.528062
vt 0.000000 0.750000
vt 0.048804 0.775000
vt 0.954978 0.553062
vn 0.0000 1.0000 0.0000
vn -0.7809 -0.6247 0.0000
vn 0.0000 0.0000 -1.0000
vn 0.0000 -1.0000 0.0000
vn 0.0000 0.0000 1.0000
vn 0.7809 -0.6247 0.0000
vn 1.0000 0.0000 0.0000
vn -1.0000 0.0000 0.0000
vn 0.0000 -0.6247 0.7809
vn 0.0000 -0.6247 -0.7809
vn 0.0000 0.6247 -0.7809
vn 0.0000 0.6247 0.7809
vn 0.7809 0.6247 0.0000
vn -0.7809 0.6247 0.0000
usemtl Material
s off
f 5/1/1 3/2/1 1/3/1
f 9/4/2 24/5/2 22/6/2
f 5/7/3 10/8/3 12/9/3
f 2/10/4 8/11/4 6/12/4
f 3/13/5 9/14/5 14/15/5
f 10/16/6 21/17/6 23/18/6
f 15/19/3 2/20/3 6/21/3
f 1/22/7 14/23/7 10/16/7
f 24/24/3 20/25/3 19/26/3
f 7/27/8 12/28/8 9/4/8
f 22/6/8 19/29/8 17/30/8
f 11/31/5 8/32/5 4/33/5
f 14/15/9 22/34/9 21/35/9
f 16/36/7 4/37/7 2/10/7
f 13/38/8 6/39/8 8/40/8
f 12/9/10 23/41/10 24/24/10
f 19/26/11 16/42/11 15/19/11
f 18/43/12 13/44/12 11/31/12
f 20/45/13 11/46/13 16/47/13
f 17/48/14 15/49/14 13/50/14
f 23/18/7 18/51/7 20/52/7
f 18/43/5 22/34/5 17/53/5
f 5/1/1 7/54/1 3/2/1
f 9/4/2 12/28/2 24/5/2
f 5/7/3 1/55/3 10/8/3
f 2/10/4 4/37/4 8/11/4
f 3/13/5 7/56/5 9/14/5
f 10/16/6 14/23/6 21/17/6
f 15/19/3 16/42/3 2/20/3
f 1/22/7 3/57/7 14/23/7
f 24/24/3 23/41/3 20/25/3
f 7/27/8 5/58/8 12/28/8
f 22/6/8 24/5/8 19/29/8
f 11/31/5 13/44/5 8/32/5
f 14/15/9 9/14/9 22/34/9
f 16/36/7 11/59/7 4/37/7
f 13/38/8 15/60/8 6/39/8
f 12/9/10 10/8/10 23/41/10
f 19/26/11 20/25/11 16/42/11
f 18/43/12 17/53/12 13/44/12
f 20/45/13 18/61/13 11/46/13
f 17/48/14 19/62/14 15/49/14
f 23/18/7 21/17/7 18/51/7
f 18/43/5 21/35/5 22/34/5
