# Blender v2.76 (sub 0) OBJ File: ''
# www.blender.org
o Cube.001
v 5.000000 -3.999998 -5.000000
v -4.999998 -3.999998 -5.000002
v -5.000000 -4.000002 4.999999
v 5.000000 -4.000002 5.000000
v 5.000002 6.000002 -4.999995
v 4.999997 5.999998 5.000005
v -5.000002 5.999998 5.000001
v -5.000000 6.000002 -4.999998
vt 0.000000 0.000000
vt 1.000000 0.000000
vt 1.000000 1.000000
vt 0.000000 1.000000
vn -0.000000 1.000000 0.000000
vn 0.000000 -1.000000 -0.000000
vn -1.000000 -0.000000 -0.000000
vn 0.000000 0.000000 -1.000000
vn 1.000000 0.000000 0.000000
vn -0.000000 -0.000000 1.000000
s 1
f 1/1/1 2/2/1 3/3/1
f 1/1/1 3/3/1 4/4/1
f 5/4/2 6/1/2 7/2/2
f 5/4/2 7/2/2 8/3/2
f 1/3/3 4/4/3 6/1/3
f 1/3/3 6/1/3 5/2/3
f 4/3/4 3/4/4 7/1/4
f 4/3/4 7/1/4 6/2/4
f 3/3/5 2/4/5 8/1/5
f 3/3/5 8/1/5 7/2/5
f 2/3/6 1/4/6 5/1/6
f 2/3/6 5/1/6 8/2/6
