# Blender v3.0.1 OBJ File: 'stairbox-02.blend'
# www.blender.org
o Cube
v 1.000000 0.250000 -1.000000
v 1.000000 0.000000 -1.000000
v 1.000000 0.250000 1.000000
v 1.000000 0.000000 1.000000
v -1.000000 0.250000 -1.000000
v -1.000000 0.000000 -1.000000
v -1.000000 0.250000 1.000000
v -1.000000 0.000000 1.000000
v -1.000000 0.000000 -0.600000
v -1.000000 0.000000 -0.200000
v -1.000000 0.000000 0.200000
v -1.000000 0.000000 0.600000
v 1.000000 0.250000 0.600000
v -1.000000 0.250000 0.600000
v 1.000000 0.000000 0.600000
v 1.000000 0.000000 0.200000
v 1.000000 0.000000 -0.200000
v 1.000000 0.000000 -0.600000
v -1.000000 0.500000 -1.000000
v 1.000000 0.500000 -1.000000
v 1.000000 0.500000 0.200000
v 1.000000 0.500000 0.600000
v -1.000000 0.500000 0.600000
v -1.000000 0.500000 0.200000
v -1.000000 0.733396 -1.000000
v 1.000000 0.733396 -1.000000
v 1.000000 0.733396 -0.200000
v 1.000000 0.733396 0.200000
v -1.000000 0.733396 0.200000
v -1.000000 0.733396 -0.200000
v -1.000000 0.966791 -0.600000
v -1.000000 0.966791 -1.000000
v 1.000000 0.966791 -1.000000
v 1.000000 0.966791 -0.600000
v 1.000000 0.966791 -0.200000
v -1.000000 0.966791 -0.200000
vt 0.741698 1.000000
vt 0.641698 0.500000
vt 0.741698 0.500000
vt 0.804198 1.000000
vt 0.866698 0.500000
vt 0.866698 1.000000
vt 0.641698 1.000000
vt 0.541698 0.500000
vt 0.641698 0.500000
vt 0.804198 1.000000
vt 0.741698 0.500000
vt 0.804198 0.500000
vt 0.341698 1.000000
vt 0.241698 0.500000
vt 0.341698 0.500000
vt 0.541698 1.000000
vt 0.441698 0.500000
vt 0.541698 0.500000
vt 0.983396 1.000000
vt 0.925047 0.500000
vt 0.983396 0.500000
vt 0.562500 0.100000
vt 0.625000 0.100000
vt 0.625000 0.200000
vt 0.000000 0.100000
vt 0.500000 0.000000
vt 0.500000 0.100000
vt 0.925047 1.000000
vt 0.866698 0.500000
vt 0.925047 0.500000
vt 0.058349 1.000000
vt 0.000000 0.500000
vt 0.058349 0.500000
vt 0.983396 0.400000
vt 0.858396 0.500000
vt 0.800047 0.300000
vt 0.641698 1.000000
vt 0.804198 0.500000
vt 0.541698 1.000000
vt 0.741698 1.000000
vt 0.441698 0.500000
vt 0.441698 1.000000
vt 0.241698 1.000000
vt 0.441698 1.000000
vt 0.925047 1.000000
vt 0.625000 0.500000
vt 0.562500 0.500000
vt 0.500000 0.400000
vt 0.500000 0.500000
vt 0.500000 0.300000
vt 0.683349 0.300000
vt 0.500000 0.200000
vt 0.741698 0.400000
vt 0.741698 0.500000
vt 0.683349 0.500000
vt 0.500000 0.100000
vt 0.500000 0.000000
vt 0.741698 0.300000
vt 0.683349 0.200000
vt 0.562500 0.000000
vt 0.500000 0.300000
vt 0.500000 0.400000
vt 0.000000 0.300000
vt 0.500000 0.500000
vt 0.000000 0.400000
vt 0.000000 0.500000
vt 0.000000 0.200000
vt 0.500000 0.200000
vt 0.000000 0.000000
vt 0.866698 1.000000
vt 0.241698 0.500000
vt 0.241698 1.000000
vt 0.179198 1.000000
vt 0.116698 1.000000
vt 0.000000 1.000000
vt 0.179198 0.500000
vt 0.116698 0.500000
vt 0.920896 0.100000
vt 0.920896 0.000000
vt 0.983396 0.000000
vt 0.983396 0.100000
vt 0.983396 0.200000
vt 0.983396 0.300000
vt 0.858396 0.200000
vt 0.858396 0.100000
vt 0.800047 0.200000
vt 0.741698 0.400000
vt 0.741698 0.300000
vt 0.800047 0.500000
vt 0.741698 0.500000
vt 0.983396 0.500000
vt 0.920896 0.500000
vn 0.0000 1.0000 0.0000
vn 0.0000 0.0000 1.0000
vn -1.0000 0.0000 0.0000
vn 0.0000 -1.0000 0.0000
vn 0.0000 0.0000 -1.0000
vn 1.0000 0.0000 0.0000
s off
f 14/1/1 3/2/1 13/3/1
f 3/4/2 8/5/2 4/6/2
f 24/7/1 22/8/1 21/9/1
f 13/10/2 23/11/2 14/12/2
f 31/13/1 35/14/1 34/15/1
f 30/16/1 28/17/1 27/18/1
f 21/19/2 29/20/2 24/21/2
f 14/22/3 23/23/3 24/24/3
f 9/25/4 2/26/4 18/27/4
f 27/28/2 36/29/2 30/30/2
f 25/31/5 33/32/5 26/33/5
f 18/34/6 20/35/6 27/36/6
f 14/1/1 7/37/1 3/2/1
f 3/4/2 7/38/2 8/5/2
f 24/7/1 23/39/1 22/8/1
f 13/10/2 22/40/2 23/11/2
f 34/15/1 33/41/1 32/42/1
f 31/13/1 36/43/1 35/14/1
f 34/15/1 32/42/1 31/13/1
f 30/16/1 29/44/1 28/17/1
f 21/19/2 28/45/2 29/20/2
f 19/46/3 5/47/3 9/48/3
f 5/47/3 6/49/3 9/48/3
f 9/48/3 10/50/3 30/51/3
f 10/50/3 11/52/3 24/24/3
f 9/48/3 30/51/3 19/46/3
f 31/53/3 32/54/3 25/55/3
f 25/55/3 19/46/3 31/53/3
f 11/52/3 12/56/3 14/22/3
f 12/56/3 8/57/3 14/22/3
f 11/52/3 14/22/3 24/24/3
f 19/46/3 30/51/3 31/53/3
f 36/58/3 31/53/3 30/51/3
f 24/24/3 29/59/3 30/51/3
f 10/50/3 24/24/3 30/51/3
f 8/57/3 7/60/3 14/22/3
f 16/61/4 15/62/4 11/63/4
f 15/62/4 4/64/4 12/65/4
f 11/63/4 15/62/4 12/65/4
f 4/64/4 8/66/4 12/65/4
f 11/63/4 10/67/4 16/61/4
f 10/67/4 9/25/4 17/68/4
f 16/61/4 10/67/4 17/68/4
f 18/27/4 17/68/4 9/25/4
f 9/25/4 6/69/4 2/26/4
f 27/28/2 35/70/2 36/29/2
f 2/71/5 6/72/5 5/73/5
f 19/74/5 25/31/5 26/33/5
f 25/31/5 32/75/5 33/32/5
f 2/71/5 5/73/5 1/76/5
f 5/73/5 19/74/5 1/76/5
f 26/33/5 20/77/5 19/74/5
f 20/77/5 1/76/5 19/74/5
f 13/78/6 3/79/6 4/80/6
f 15/81/6 16/82/6 13/78/6
f 16/82/6 17/83/6 21/84/6
f 13/78/6 16/82/6 21/84/6
f 13/78/6 4/80/6 15/81/6
f 21/84/6 22/85/6 13/78/6
f 27/36/6 28/86/6 21/84/6
f 34/87/6 35/88/6 27/36/6
f 26/89/6 33/90/6 34/87/6
f 2/91/6 1/92/6 18/34/6
f 1/92/6 20/35/6 18/34/6
f 20/35/6 26/89/6 34/87/6
f 27/36/6 21/84/6 17/83/6
f 20/35/6 34/87/6 27/36/6
f 17/83/6 18/34/6 27/36/6
