# Blender v3.0.1 OBJ File: 'basic_baking-01.blend'
# www.blender.org
o Cube
v 13.000000 2.000000 -17.000000
v 13.000000 1.000000 -17.000000
v 13.000000 2.000000 -13.000000
v 13.000000 1.000000 -13.000000
v 11.000000 2.000000 -17.000000
v 11.000000 1.000000 -17.000000
v 11.000000 2.000000 -13.000000
v 11.000000 1.000000 -13.000000
vt 0.000419 0.000419
vt 0.199414 0.000419
vt 0.199414 0.398409
vt 0.000419 0.398409
vt 0.699414 0.997070
vt 0.599916 0.997070
vt 0.599916 0.798074
vt 0.699414 0.798074
vt 0.699414 0.398409
vt 0.599916 0.398409
vt 0.599916 0.000419
vt 0.699414 0.000419
vt 0.200251 0.000419
vt 0.399246 0.000419
vt 0.399247 0.398409
vt 0.200251 0.398409
vt 0.699414 0.797237
vt 0.599916 0.797237
vt 0.599916 0.399246
vt 0.699414 0.399246
vt 0.999581 0.199414
vt 0.900084 0.199414
vt 0.900084 0.000419
vt 0.999581 0.000419
vn 0.0000 1.0000 0.0000
vn 0.0000 0.0000 1.0000
vn -1.0000 0.0000 0.0000
vn 0.0000 -1.0000 0.0000
vn 1.0000 0.0000 0.0000
vn 0.0000 0.0000 -1.0000
s off
f 1/1/1 5/2/1 7/3/1 3/4/1
f 4/5/2 3/6/2 7/7/2 8/8/2
f 8/9/3 7/10/3 5/11/3 6/12/3
f 6/13/4 2/14/4 4/15/4 8/16/4
f 2/17/5 1/18/5 3/19/5 4/20/5
f 6/21/6 5/22/6 1/23/6 2/24/6
o Cube.001
v 8.000000 3.000000 -18.000000
v 8.000000 1.000000 -18.000000
v 8.000000 3.000000 -16.000000
v 8.000000 1.000000 -16.000000
v 6.000000 3.000000 -18.000000
v 6.000000 1.000000 -18.000000
v 6.000000 3.000000 -16.000000
v 6.000000 1.000000 -16.000000
vt 0.000419 0.698577
vt 0.199414 0.698577
vt 0.199414 0.897572
vt 0.000419 0.897572
vt 0.599079 0.599079
vt 0.599079 0.798074
vt 0.400084 0.798074
vt 0.400084 0.599079
vt 0.899247 0.000419
vt 0.899247 0.199414
vt 0.700251 0.199414
vt 0.700251 0.000419
vt 0.700251 0.200251
vt 0.899247 0.200251
vt 0.899247 0.399246
vt 0.700251 0.399247
vt 0.899247 0.400084
vt 0.899247 0.599079
vt 0.700251 0.599079
vt 0.700251 0.400084
vt 0.899247 0.599916
vt 0.899247 0.798912
vt 0.700251 0.798912
vt 0.700251 0.599916
vn 0.0000 1.0000 0.0000
vn 0.0000 0.0000 1.0000
vn -1.0000 0.0000 0.0000
vn 0.0000 -1.0000 0.0000
vn 1.0000 0.0000 0.0000
vn 0.0000 0.0000 -1.0000
s off
f 9/25/7 13/26/7 15/27/7 11/28/7
f 12/29/8 11/30/8 15/31/8 16/32/8
f 16/33/9 15/34/9 13/35/9 14/36/9
f 14/37/10 10/38/10 12/39/10 16/40/10
f 10/41/11 9/42/11 11/43/11 12/44/11
f 14/45/12 13/46/12 9/47/12 10/48/12
o Cube.002
v 9.000000 4.000000 -6.000000
v 9.000000 1.000000 -6.000000
v 9.000000 4.000000 -4.000000
v 9.000000 1.000000 -4.000000
v 7.000000 4.000000 -6.000000
v 7.000000 1.000000 -6.000000
v 7.000000 4.000000 -4.000000
v 7.000000 1.000000 -4.000000
vt 0.400084 0.798912
vt 0.599079 0.798912
vt 0.599079 0.997907
vt 0.400084 0.997907
vt 0.199414 0.399246
vt 0.199414 0.697739
vt 0.000419 0.697739
vt 0.000419 0.399246
vt 0.599079 0.299749
vt 0.599079 0.598242
vt 0.400084 0.598242
vt 0.400084 0.299749
vt 0.700251 0.799749
vt 0.899247 0.799749
vt 0.899247 0.998744
vt 0.700251 0.998744
vt 0.599079 0.000419
vt 0.599079 0.298912
vt 0.400084 0.298912
vt 0.400084 0.000419
vt 0.399246 0.399246
vt 0.399247 0.697739
vt 0.200251 0.697739
vt 0.200251 0.399246
vn 0.0000 1.0000 0.0000
vn 0.0000 0.0000 1.0000
vn -1.0000 0.0000 0.0000
vn 0.0000 -1.0000 0.0000
vn 1.0000 0.0000 0.0000
vn 0.0000 0.0000 -1.0000
s off
f 17/49/13 21/50/13 23/51/13 19/52/13
f 20/53/14 19/54/14 23/55/14 24/56/14
f 24/57/15 23/58/15 21/59/15 22/60/15
f 22/61/16 18/62/16 20/63/16 24/64/16
f 18/65/17 17/66/17 19/67/17 20/68/17
f 22/69/18 21/70/18 17/71/18 18/72/18
o Plane
v 0.000000 0.000000 0.000000
v 20.000000 0.000000 0.000000
v 0.000000 0.000000 -20.000000
v 20.000000 0.000000 -20.000000
v 0.000000 4.000000 -20.000000
v 20.000000 4.000000 -20.000000
v 0.000000 4.000000 0.000000
v 0.000000 4.000000 -20.000000
vt 0.399247 0.897572
vt 0.200251 0.897572
vt 0.200251 0.698577
vt 0.399246 0.698577
vt 0.939883 0.200251
vt 0.939883 0.399246
vt 0.900084 0.399246
vt 0.900084 0.200251
vt 0.939883 0.400084
vt 0.939883 0.599079
vt 0.900084 0.599079
vt 0.900084 0.400084
vn 0.0000 1.0000 0.0000
vn 0.0000 0.0000 1.0000
vn 1.0000 0.0000 0.0000
s off
f 25/73/19 26/74/19 28/75/19 27/76/19
f 27/77/20 28/78/20 30/79/20 29/80/20
f 25/81/21 27/82/21 32/83/21 31/84/21
