# Blender v3.0.1 OBJ File: 'box_with_angled_walls-01.blend'
# www.blender.org
mtllib box_with_angled_walls-01z.mtl
o Plane
v 1.000000 0.000000 1.000000
v 1.000000 0.000000 9.000000
v 9.000000 0.000000 1.000000
v 9.000000 0.000000 9.000000
vt 1.000000 0.000000
vt 0.000000 1.000000
vt 0.000000 0.000000
vt 1.000000 1.000000
vn 0.0000 1.0000 0.0000
usemtl None
s off
f 2/1/1 3/2/1 1/3/1
f 2/1/1 4/4/1 3/2/1
o Cube_Cube.001
v 7.000000 0.000000 2.000000
v 7.000000 1.000000 2.000000
v 7.250000 0.000000 2.000000
v 7.250000 1.000000 2.000000
v 7.000000 0.000000 5.000000
v 7.000000 1.000000 5.000000
v 7.250000 0.000000 5.000000
v 7.250000 1.000000 5.000000
vt 0.625000 0.000000
vt 0.375000 0.250000
vt 0.375000 0.000000
vt 0.625000 0.250000
vt 0.375000 0.500000
vt 0.625000 0.500000
vt 0.375000 0.750000
vt 0.625000 0.750000
vt 0.375000 1.000000
vt 0.125000 0.750000
vt 0.125000 0.500000
vt 0.875000 0.500000
vt 0.625000 1.000000
vt 0.875000 0.750000
vn 0.0000 0.0000 -1.0000
vn 1.0000 0.0000 0.0000
vn 0.0000 0.0000 1.0000
vn -1.0000 0.0000 0.0000
vn 0.0000 -1.0000 0.0000
vn 0.0000 1.0000 0.0000
usemtl None
s off
f 6/5/2 7/6/2 5/7/2
f 8/8/3 11/9/3 7/6/3
f 12/10/4 9/11/4 11/9/4
f 10/12/5 5/13/5 9/11/5
f 11/9/6 5/14/6 7/15/6
f 8/16/7 10/12/7 12/10/7
f 6/5/2 8/8/2 7/6/2
f 8/8/3 12/10/3 11/9/3
f 12/10/4 10/12/4 9/11/4
f 10/12/5 6/17/5 5/13/5
f 11/9/6 9/11/6 5/14/6
f 8/16/7 6/18/7 10/12/7
o Cube.001_Cube.002
v 7.633975 0.000000 5.633975
v 7.633975 1.000000 5.633975
v 7.850481 0.000000 5.758975
v 7.850481 1.000000 5.758975
v 6.633975 0.000000 7.366025
v 6.633975 1.000000 7.366025
v 6.850481 0.000000 7.491025
v 6.850481 1.000000 7.491025
vt 0.625000 0.000000
vt 0.375000 0.250000
vt 0.375000 0.000000
vt 0.625000 0.250000
vt 0.375000 0.500000
vt 0.625000 0.500000
vt 0.375000 0.750000
vt 0.625000 0.750000
vt 0.375000 1.000000
vt 0.125000 0.750000
vt 0.125000 0.500000
vt 0.875000 0.500000
vt 0.625000 1.000000
vt 0.875000 0.750000
vn 0.5000 0.0000 -0.8660
vn 0.8660 0.0000 0.5000
vn -0.5000 0.0000 0.8660
vn -0.8660 0.0000 -0.5000
vn 0.0000 -1.0000 0.0000
vn 0.0000 1.0000 0.0000
usemtl None
s off
f 14/19/8 15/20/8 13/21/8
f 16/22/9 19/23/9 15/20/9
f 20/24/10 17/25/10 19/23/10
f 18/26/11 13/27/11 17/25/11
f 19/23/12 13/28/12 15/29/12
f 16/30/13 18/26/13 20/24/13
f 14/19/8 16/22/8 15/20/8
f 16/22/9 20/24/9 19/23/9
f 20/24/10 18/26/10 17/25/10
f 18/26/11 14/31/11 13/27/11
f 19/23/12 17/25/12 13/28/12
f 16/30/13 14/32/13 18/26/13
o Plane.001
v 1.000000 2.000000 1.000000
v 1.000000 0.000000 1.000000
v 9.000000 2.000000 1.000000
v 9.000000 0.000000 1.000000
vt 1.000000 0.000000
vt 0.000000 1.000000
vt 0.000000 0.000000
vt 1.000000 1.000000
vn 0.0000 0.0000 1.0000
usemtl None
s off
f 22/33/14 23/34/14 21/35/14
f 22/33/14 24/36/14 23/34/14
o Plane.002
v 9.000000 2.000000 1.000000
v 9.000000 -0.000000 1.000000
v 9.000000 2.000000 9.000000
v 9.000000 0.000001 9.000000
vt 1.000000 0.000000
vt 0.000000 1.000000
vt 0.000000 0.000000
vt 1.000000 1.000000
vn -1.0000 0.0000 0.0000
usemtl None
s off
f 26/37/15 27/38/15 25/39/15
f 26/37/15 28/40/15 27/38/15
o Plane.003
v 1.000000 2.000000 9.000000
v 1.000000 0.000000 9.000000
v 1.000000 2.000000 1.000000
v 1.000000 -0.000000 1.000000
vt 1.000000 0.000000
vt 0.000000 1.000000
vt 0.000000 0.000000
vt 1.000000 1.000000
vn 1.0000 0.0000 -0.0000
usemtl None
s off
f 30/41/16 31/42/16 29/43/16
f 30/41/16 32/44/16 31/42/16
o Plane.004_Plane.005
v 9.000000 2.000000 9.000000
v 9.000000 0.000000 9.000000
v 1.000000 2.000000 9.000002
v 1.000000 0.000000 9.000002
vt 1.000000 0.000000
vt 0.000000 1.000000
vt 0.000000 0.000000
vt 1.000000 1.000000
vn -0.0000 0.0000 -1.0000
usemtl None
s off
f 34/45/17 35/46/17 33/47/17
f 34/45/17 36/48/17 35/46/17
o Cube.003_Cube.004
v 1.633975 0.000000 1.633975
v 1.633975 1.000000 1.633975
v 1.850481 0.000000 1.508975
v 1.850481 1.000000 1.508975
v 2.633975 0.000000 3.366025
v 2.633975 1.000000 3.366025
v 2.850481 0.000000 3.241025
v 2.850481 1.000000 3.241025
vt 0.625000 0.000000
vt 0.375000 0.250000
vt 0.375000 0.000000
vt 0.625000 0.250000
vt 0.375000 0.500000
vt 0.625000 0.500000
vt 0.375000 0.750000
vt 0.625000 0.750000
vt 0.375000 1.000000
vt 0.125000 0.750000
vt 0.125000 0.500000
vt 0.875000 0.500000
vt 0.625000 1.000000
vt 0.875000 0.750000
vn -0.5000 0.0000 -0.8660
vn 0.8660 0.0000 -0.5000
vn 0.5000 0.0000 0.8660
vn -0.8660 0.0000 0.5000
vn 0.0000 -1.0000 0.0000
vn 0.0000 1.0000 0.0000
usemtl None
s off
f 38/49/18 39/50/18 37/51/18
f 40/52/19 43/53/19 39/50/19
f 44/54/20 41/55/20 43/53/20
f 42/56/21 37/57/21 41/55/21
f 43/53/22 37/58/22 39/59/22
f 40/60/23 42/56/23 44/54/23
f 38/49/18 40/52/18 39/50/18
f 40/52/19 44/54/19 43/53/19
f 44/54/20 42/56/20 41/55/20
f 42/56/21 38/61/21 37/57/21
f 43/53/22 41/55/22 37/58/22
f 40/60/23 38/62/23 42/56/23
o Cube.004_Cube.005
v 2.633975 0.000000 6.366025
v 2.633975 1.000000 6.366025
v 2.758975 0.000000 6.149519
v 2.758975 1.000000 6.149519
v 5.232051 0.000000 7.866025
v 5.232051 1.000000 7.866025
v 5.357051 0.000000 7.649519
v 5.357051 1.000000 7.649519
vt 0.625000 0.000000
vt 0.375000 0.250000
vt 0.375000 0.000000
vt 0.625000 0.250000
vt 0.375000 0.500000
vt 0.625000 0.500000
vt 0.375000 0.750000
vt 0.625000 0.750000
vt 0.375000 1.000000
vt 0.125000 0.750000
vt 0.125000 0.500000
vt 0.875000 0.500000
vt 0.625000 1.000000
vt 0.875000 0.750000
vn -0.8660 0.0000 -0.5000
vn 0.5000 0.0000 -0.8660
vn 0.8660 0.0000 0.5000
vn -0.5000 0.0000 0.8660
vn 0.0000 -1.0000 0.0000
vn 0.0000 1.0000 0.0000
usemtl None
s off
f 46/63/24 47/64/24 45/65/24
f 48/66/25 51/67/25 47/64/25
f 52/68/26 49/69/26 51/67/26
f 50/70/27 45/71/27 49/69/27
f 51/67/28 45/72/28 47/73/28
f 48/74/29 50/70/29 52/68/29
f 46/63/24 48/66/24 47/64/24
f 48/66/25 52/68/25 51/67/25
f 52/68/26 50/70/26 49/69/26
f 50/70/27 46/75/27 45/71/27
f 51/67/28 49/69/28 45/72/28
f 48/74/29 46/76/29 50/70/29
