# Blender v2.64 (sub 0) OBJ File: 'magick_world.blend'
# www.blender.org
mtllib magick_world-04.mtl
o water_Plane.004
v 6.000000 -0.500000 -20.000000
v -6.000000 -0.500000 -20.000000
v 6.000000 -0.500000 -46.000000
v -6.000000 -0.500000 -46.000000
vt 0.000000 0.000000
vt 1.000000 0.000000
vt 1.000000 1.000000
vt 0.000000 1.000000
vn 0.000000 1.000000 -0.000000
usemtl Material.002
s off
f 2/1/1 1/2/1 3/3/1
f 2/1/1 3/3/1 4/4/1
o Plane_Plane.003
v 22.000000 0.000000 7.000000
v -22.000000 0.000000 7.000000
v 22.000000 0.000000 -73.000000
v -22.000000 0.000000 -73.000000
v 7.333333 0.000000 7.000000
v -7.333333 0.000000 7.000000
v 7.333333 0.000000 -73.000000
v -7.333333 0.000000 -73.000000
v -22.000000 0.000000 -46.333332
v -22.000000 0.000000 -19.666668
v 22.000000 0.000000 -19.666668
v 22.000000 0.000000 -46.333332
v 7.333333 0.000000 -46.333332
v 7.333333 0.000000 -19.666668
v -7.333333 0.000000 -46.333332
v -7.333333 0.000000 -19.666668
v 7.333333 0.000000 -23.476191
v 7.333333 0.000000 -27.285715
v 7.333333 0.000000 -31.095238
v 7.333333 0.000000 -34.904762
v 7.333333 0.000000 -38.714287
v 7.333333 0.000000 -42.523811
v -7.333333 0.000000 -23.476191
v -7.333333 0.000000 -27.285715
v -7.333333 0.000000 -31.095238
v -7.333333 0.000000 -34.904762
v -7.333333 0.000000 -38.714287
v -7.333333 0.000000 -42.523811
v -5.238095 0.000000 -46.333332
v -3.142857 0.000000 -46.333332
v -1.047619 0.000000 -46.333332
v 1.047619 0.000000 -46.333332
v 3.142857 0.000000 -46.333332
v 5.238095 0.000000 -46.333332
v -5.238095 0.000000 -19.666668
v -3.142857 0.000000 -19.666668
v -1.047619 0.000000 -19.666668
v 1.047619 0.000000 -19.666668
v 3.142857 0.000000 -19.666668
v 5.238095 0.000000 -19.666668
v 5.238095 0.000000 -42.523811
v 5.238095 0.000000 -38.714287
v 5.238095 0.000000 -34.904762
v 5.238095 0.000000 -31.095238
v 5.238095 0.000000 -27.285715
v 5.238095 0.000000 -23.476191
v 3.142857 -1.000000 -42.523811
v 3.142857 -1.000000 -38.714287
v 3.142857 0.000000 -34.904762
v 3.142857 -1.000000 -31.095238
v 3.142857 -1.000000 -27.285715
v 3.142857 -1.000000 -23.476191
v 1.047619 0.000000 -42.523811
v 1.047619 -1.000000 -38.714287
v 1.047619 -1.000000 -34.904762
v 1.047619 -1.000000 -31.095238
v 1.047619 -1.000000 -27.285715
v 1.047619 -1.000000 -23.476191
v -1.047619 0.000000 -42.523811
v -1.047619 0.000000 -38.714287
v -1.047619 -1.000000 -34.904762
v -1.047619 -1.000000 -31.095238
v -1.047619 -1.000000 -27.285715
v -1.047619 0.000000 -23.476191
v -3.142857 0.000000 -42.523811
v -3.142857 0.000000 -38.714287
v -3.142857 0.000000 -34.904762
v -3.142857 0.000000 -31.095238
v -3.142857 0.000000 -27.285715
v -3.142857 0.000000 -23.476191
v -5.238095 0.000000 -42.523811
v -5.238095 0.000000 -38.714287
v -5.238095 0.000000 -34.904762
v -5.238095 0.000000 -31.095238
v -5.238095 0.000000 -27.285715
v -5.238095 0.000000 -23.476191
vt -2.066120 0.727141
vt -2.059597 2.853034
vt -4.185491 2.859556
vt -2.079164 -3.524646
vt -2.072642 -1.398752
vt -4.198535 -1.392230
vt -4.192013 0.733663
vt 2.172623 -3.537689
vt 2.179145 -1.411796
vt 0.053251 -1.405274
vt 0.046729 -3.531167
vt 2.185667 0.714097
vt -1.763353 0.422510
vt -1.762421 0.726209
vt 2.192188 2.839991
vt 0.066295 2.846512
vt 0.059773 0.720619
vt -1.768942 -1.399684
vt -1.768011 -1.095985
vt -2.071710 -1.095053
vt 2.837215 2.901472
vt 2.983283 -0.298479
vt 3.266613 2.892249
vt 3.197671 -0.317517
vt 3.481002 2.873212
vt 4.987723 -0.303505
vt 5.205057 2.892398
vt 4.990320 2.907001
vt -1.765216 -0.184888
vt -1.764284 0.118812
vt -2.067983 0.119743
vt -2.067051 0.423442
vt 0.054183 -1.101575
vt -0.249516 -1.100643
vt -0.250448 -1.404342
vt -0.553215 -1.099712
vt -0.554147 -1.403411
vt -0.856914 -1.098780
vt -0.857846 -1.402479
vt -1.160613 -1.097848
vt -1.161545 -1.401547
vt -1.464312 -1.096916
vt -1.465244 -1.400615
vt 4.339799 -0.364815
vt 4.125411 -0.345777
vt 3.842079 -3.536506
vt 3.912726 2.964803
vt 3.695392 -0.231100
vt 3.910129 -0.245703
vt 4.127463 2.950200
vt 4.553053 2.892398
vt 4.985124 2.907001
vt 4.770388 2.892397
vt 2.407197 2.881844
vt 2.553264 -0.318108
vt 2.768273 -0.308294
vt 2.622206 2.891658
vt 0.055115 -0.797876
vt 0.056046 -0.494177
vt -0.247653 -0.493245
vt 3.696012 -0.336554
vt 3.412680 -3.527283
vt -4.201330 3.163255
vt -3.897631 3.164186
vt -3.898563 3.467886
vt 4.335720 -0.303505
vt 4.550456 -0.318108
vt -4.203194 3.770654
vt -3.899495 3.771585
vt -3.900426 4.075284
vt -4.204125 4.074352
vt -3.901358 4.378983
vt 0.056978 -0.190478
vt -0.246721 -0.189546
vt -0.550420 -0.188614
vt 3.266613 -0.327331
vt 2.983283 -3.518060
vt -3.594864 3.468817
vt -3.595795 3.772517
vt -3.596727 4.076215
vt 4.555652 -0.318108
vt 4.770388 -0.303505
vt 4.553053 2.892397
vt 0.057910 0.113221
vt -0.245789 0.114153
vt -0.549488 0.115085
vt -0.853187 0.116016
vt 2.837215 -0.318108
vt 2.622207 -0.327923
vt 2.768272 -3.527874
vt 2.407197 -0.337737
vt 2.553264 -3.537689
vt 2.192188 -0.347552
vt 0.058841 0.416920
vt -0.244858 0.417852
vt -0.548556 0.418783
vt -0.852256 0.419715
vt -1.155955 0.420647
vt -1.156886 0.116948
vt -1.459653 0.421579
vt -1.460585 0.117880
vt -0.243926 0.721551
vt -0.547625 0.722483
vt -0.851324 0.723414
vt -1.155023 0.724346
vt -1.458722 0.725278
vt -4.205057 -3.518123
vt -2.070778 -0.791354
vt -2.069847 -0.487655
vt -2.068915 -0.183956
vt 3.695392 2.854174
vt 3.697989 2.979405
vt -0.855982 -0.795081
vt 2.192188 2.872029
vt -4.200398 2.859556
vt 4.772985 -0.318108
vt -4.205057 4.378051
vt 5.202460 -0.318108
vt 4.767789 2.907001
vn -0.419129 0.878175 -0.230521
vn 0.000000 0.967231 -0.253898
vn 0.430730 0.902481 0.000000
vn -0.000000 0.967231 0.253898
vn -0.430730 0.902481 0.000000
vn 0.419129 0.878175 0.230521
usemtl 
s off
f 20/5/1 14/6/1 6/7/1
f 15/8/1 18/9/1 9/10/1
f 9/10/1 20/5/1 10/11/1
f 7/12/1 11/13/1 17/14/1
f 16/15/1 17/14/1 15/8/1
f 11/13/1 12/16/1 17/14/1
f 80/17/1 27/18/1 20/5/1
f 12/16/1 8/19/1 13/20/1
f 19/21/1 13/20/1 14/6/1
f 21/22/1 50/23/1 44/24/1
f 50/25/2 56/26/2 43/27/2
f 56/26/3 62/28/3 42/29/3
f 62/30/4 68/31/4 41/32/4
f 68/33/1 74/34/1 40/35/1
f 74/34/1 80/17/1 39/36/1
f 17/14/1 38/37/1 45/38/1
f 26/39/1 45/38/1 46/40/1
f 25/41/1 46/40/1 47/42/1
f 24/43/1 47/42/1 48/44/1
f 23/45/1 48/44/1 49/46/1
f 22/47/1 49/46/1 50/23/1
f 38/48/5 37/49/5 51/50/5
f 45/51/6 51/52/6 52/53/6
f 46/54/2 52/53/2 53/55/2
f 47/56/5 53/57/5 54/30/5
f 48/58/6 54/59/6 55/60/6
f 49/61/6 55/60/6 56/26/6
f 37/62/1 36/63/1 57/64/1
f 51/50/7 57/65/7 58/66/7
f 52/67/1 58/68/1 59/69/1
f 53/55/6 59/70/6 60/71/6
f 54/72/1 60/73/1 61/74/1
f 55/75/1 61/74/1 62/76/1
f 36/63/1 35/77/1 63/78/1
f 57/64/1 63/78/1 64/79/1
f 58/66/7 64/80/7 65/81/7
f 59/69/1 65/82/1 66/83/1
f 60/73/1 66/83/1 67/84/1
f 61/85/3 67/86/3 68/87/3
f 35/77/1 34/88/1 69/89/1
f 63/78/1 69/89/1 70/90/1
f 64/79/1 70/90/1 71/91/1
f 65/81/4 71/92/4 72/93/4
f 66/94/4 72/93/4 73/95/4
f 67/96/4 73/95/4 74/97/4
f 34/88/1 33/98/1 75/99/1
f 69/89/1 75/99/1 76/100/1
f 70/90/1 76/100/1 77/101/1
f 71/91/1 77/101/1 78/102/1
f 72/103/1 78/102/1 79/104/1
f 73/105/1 79/104/1 80/17/1
f 33/98/1 19/21/1 32/106/1
f 75/99/1 32/106/1 31/107/1
f 76/100/1 31/107/1 30/108/1
f 77/101/1 30/108/1 29/109/1
f 78/102/1 29/109/1 28/110/1
f 79/104/1 28/110/1 27/18/1
f 10/11/1 20/5/1 6/7/1
f 5/111/1 15/8/1 9/10/1
f 18/9/1 44/24/1 9/10/1
f 44/24/1 43/112/1 9/10/1
f 43/112/1 42/113/1 9/10/1
f 42/113/1 41/114/1 9/10/1
f 41/114/1 40/35/1 9/10/1
f 40/35/1 39/36/1 9/10/1
f 39/36/1 20/5/1 9/10/1
f 16/15/1 7/12/1 17/14/1
f 15/8/1 21/22/1 18/9/1
f 15/8/1 22/47/1 21/22/1
f 15/8/1 23/45/1 22/47/1
f 15/8/1 24/43/1 23/45/1
f 15/8/1 25/41/1 24/43/1
f 17/14/1 26/39/1 15/8/1
f 26/39/1 25/41/1 15/8/1
f 12/16/1 19/21/1 33/98/1
f 12/16/1 33/98/1 34/88/1
f 12/16/1 34/88/1 35/77/1
f 12/16/1 35/77/1 36/63/1
f 12/16/1 36/63/1 37/62/1
f 17/14/1 12/16/1 38/37/1
f 12/16/1 37/62/1 38/37/1
f 39/36/1 80/17/1 20/5/1
f 19/21/1 12/16/1 13/20/1
f 27/18/1 14/6/1 20/5/1
f 28/110/1 14/6/1 27/18/1
f 29/109/1 14/6/1 28/110/1
f 30/108/1 14/6/1 29/109/1
f 31/107/1 14/6/1 30/108/1
f 32/106/1 19/21/1 14/6/1
f 31/107/1 32/106/1 14/6/1
f 18/9/1 21/22/1 44/24/1
f 44/24/1 50/23/1 43/112/1
f 43/27/3 56/26/3 42/29/3
f 42/29/3 62/28/3 41/115/3
f 41/114/1 68/33/1 40/35/1
f 40/35/1 74/34/1 39/36/1
f 26/39/1 17/14/1 45/38/1
f 25/41/1 26/39/1 46/40/1
f 24/43/1 25/41/1 47/42/1
f 23/45/1 24/43/1 48/44/1
f 22/47/1 23/45/1 49/46/1
f 21/22/1 22/47/1 50/23/1
f 45/51/6 38/116/6 51/52/6
f 46/54/6 45/51/6 52/53/6
f 47/42/1 46/40/1 53/117/1
f 48/58/6 47/118/6 54/59/6
f 49/61/6 48/58/6 55/60/6
f 50/25/6 49/61/6 56/26/6
f 51/50/7 37/49/7 57/65/7
f 52/67/1 51/119/1 58/68/1
f 53/55/2 52/53/2 59/70/2
f 54/30/5 53/57/5 60/120/5
f 55/75/1 54/72/1 61/74/1
f 56/121/1 55/75/1 62/76/1
f 57/64/1 36/63/1 63/78/1
f 58/66/7 57/65/7 64/80/7
f 59/69/1 58/68/1 65/82/1
f 60/73/1 59/69/1 66/83/1
f 61/74/1 60/73/1 67/84/1
f 62/30/4 61/122/4 68/31/4
f 63/78/1 35/77/1 69/89/1
f 64/79/1 63/78/1 70/90/1
f 65/81/7 64/80/7 71/92/7
f 66/94/4 65/81/4 72/93/4
f 67/96/4 66/94/4 73/95/4
f 68/87/3 67/86/3 74/123/3
f 69/89/1 34/88/1 75/99/1
f 70/90/1 69/89/1 76/100/1
f 71/91/1 70/90/1 77/101/1
f 72/103/1 71/91/1 78/102/1
f 73/105/1 72/103/1 79/104/1
f 74/34/1 73/105/1 80/17/1
f 75/99/1 33/98/1 32/106/1
f 76/100/1 75/99/1 31/107/1
f 77/101/1 76/100/1 30/108/1
f 78/102/1 77/101/1 29/109/1
f 79/104/1 78/102/1 28/110/1
f 80/17/1 79/104/1 27/18/1
o elevated_Plane.002
v -6.294851 0.000000 -63.092983
v -10.360414 0.000000 -59.724056
v 8.113369 -0.115683 -26.778355
v -2.229287 0.000000 -66.461906
v -0.196507 0.000000 -68.146362
v 8.553369 -0.115683 -32.300720
v 7.233365 -0.115683 -39.126663
v 11.633362 -0.115683 -51.446667
v 9.543364 -0.115683 -44.076668
v 11.138365 -0.115683 -43.691666
v -12.393193 0.000000 -58.039604
v -13.409583 0.000000 -57.197380
v 13.393363 0.684317 -51.446667
v 8.113369 0.684317 -26.778355
v 23.513367 0.684317 -36.046669
v 8.553369 0.684317 -32.300720
v 7.233365 0.684317 -39.126663
v 9.213366 0.684317 -37.586666
v 24.173367 0.684317 -44.186668
v 11.633362 0.684317 -51.446667
v 10.643366 0.684317 -36.816666
v 9.543364 0.684317 -44.076668
v 11.138365 0.684317 -43.691666
v -6.294851 0.912707 -63.092983
v -10.360413 0.912707 -59.724056
v -2.229288 0.912707 -66.461906
v -0.196508 0.912707 -68.146362
v -12.393193 0.912707 -58.039604
v -13.409583 0.912707 -57.197380
v -54.488804 0.912707 -89.129250
v -52.324329 0.912707 -91.593521
v -26.350910 0.912707 -121.164757
v -30.679817 0.912707 -116.236221
v -47.995422 0.912707 -96.522057
v -39.337627 0.912707 -106.379128
vt 2.303656 -0.912402
vt 1.953256 -0.913477
vt 1.955927 -1.784234
vt 1.194990 1.138897
vt 1.507606 1.139856
vt 1.504934 2.010613
vt 1.970834 -0.161648
vt 2.116557 -0.162095
vt 2.119228 0.708661
vt 1.756917 1.140621
vt 1.754246 2.011378
vt 1.192319 2.009654
vt 0.973423 2.008982
vt 0.976094 1.138225
vt 0.975565 0.539484
vt 1.968998 0.536436
vt 0.976790 0.938645
vt 1.966855 -0.162095
vt 1.967161 -0.062305
vt 0.973729 -0.059258
vt 1.414260 -0.398515
vt 1.201843 -0.272289
vt 1.343540 -0.512717
vt 1.629285 -0.645316
vt 0.974652 -1.620814
vt 1.532762 -0.246563
vt 1.687581 -0.511762
vt 1.953256 -0.789383
vt 1.907385 -0.942290
vt 0.973423 -0.162095
vt 1.311048 -1.784234
vt 0.971309 2.213356
vt 0.902271 2.285411
vt 0.798056 -1.641822
vt 0.764196 2.429522
vt 0.447326 -1.357000
vt -1.306327 0.067107
vt -0.955597 -0.217713
vt 0.211892 3.005964
vt -0.254134 -0.787357
vt 0.488044 2.717742
vt 1.967773 0.137275
vt 0.974341 0.140323
vt 0.977402 1.138225
vt 1.970222 0.935597
vt 2.306327 -1.783159
vt 1.973506 0.709108
vt 0.973423 -0.159048
vt 0.973423 -1.784234
vt 0.073817 3.150074
vt 1.970835 1.135177
vn -0.997969 0.000000 -0.063700
vn -0.981811 0.000000 0.189863
vn 0.234642 0.000000 -0.972082
vn -0.996841 -0.000000 -0.079424
vn -0.906183 0.000000 -0.422885
vn 0.638053 -0.000000 0.769992
vn 0.638050 0.000000 0.769995
vn 0.638054 0.000000 0.769992
vn 0.638051 -0.000001 0.769994
vn 0.638052 0.000001 0.769993
vn 0.638053 0.000001 0.769992
vn 0.638054 -0.000001 0.769992
vn 0.638051 -0.000000 0.769994
usemtl elevated
s off
f 103/124/8 100/125/8 88/126/8
f 87/127/9 86/128/9 96/129/9
f 90/130/10 89/131/10 102/132/10
f 86/128/11 83/133/11 94/134/11
f 97/135/12 102/136/12 89/137/12
f 104/138/13 81/139/13 106/140/13
f 92/141/14 91/142/14 108/143/14
f 98/144/1 96/145/1 101/146/1
f 103/147/1 101/146/1 95/148/1
f 97/149/1 98/144/1 102/150/1
f 100/151/1 103/147/1 93/152/1
f 102/150/1 98/144/1 103/147/1
f 96/145/1 94/153/1 95/148/1
f 101/146/1 96/145/1 95/148/1
f 99/154/1 103/147/1 95/148/1
f 98/144/1 97/149/1 96/145/1
f 103/147/1 99/154/1 93/152/1
f 98/144/1 101/146/1 103/147/1
f 109/155/1 108/156/1 111/157/1
f 108/156/1 105/158/1 114/159/1
f 112/160/1 113/161/1 106/162/1
f 113/161/1 115/163/1 104/164/1
f 105/158/1 104/164/1 115/163/1
f 82/165/15 81/139/15 104/138/15
f 91/142/16 82/165/16 105/166/16
f 107/167/17 106/140/17 84/168/17
f 90/169/8 103/124/8 88/126/8
f 97/135/9 87/127/9 96/129/9
f 103/170/10 90/130/10 102/132/10
f 96/129/11 86/128/11 94/134/11
f 87/127/12 97/135/12 89/137/12
f 106/140/18 81/139/18 84/168/18
f 109/171/14 92/141/14 108/143/14
f 110/172/1 109/155/1 111/157/1
f 111/157/1 108/156/1 114/159/1
f 107/173/1 112/160/1 106/162/1
f 106/162/1 113/161/1 104/164/1
f 114/159/1 105/158/1 115/163/1
f 105/166/19 82/165/19 104/138/19
f 108/143/20 91/142/20 105/166/20
f 85/174/17 107/167/17 84/168/17
o walls_Plane.001
v 17.030815 -2.957419 -0.811007
v -13.566102 -2.957419 -55.791248
v -9.369184 -2.957419 1.589006
v 5.030804 -2.957419 -16.811007
v -12.569197 -2.957419 -17.610994
v 0.230816 -2.957419 3.989000
v 17.030811 -2.957419 -12.011006
v -16.569191 -2.957419 -5.610993
v 5.030816 -2.957419 2.388996
v 5.830797 -2.957419 -27.985268
v -8.569203 -2.957419 -21.610994
v -4.569184 -2.957419 2.389004
v 1.385361 -2.957419 -65.786148
v 9.030791 -2.957419 -50.411007
v -8.969206 -2.957419 -36.410995
v -10.626526 -2.957419 -55.832531
v -21.681080 -2.957419 -43.810997
v -47.971264 -4.428657 -84.861511
v 10.630793 -1.517419 -50.411011
v 5.830797 -1.517419 -27.985268
v 19.830795 -1.517419 -36.411007
v 20.430794 -1.517419 -43.811008
v 9.030791 -1.517419 -50.411007
v 1.385361 -1.517419 -65.786148
v -53.862358 -2.988657 -74.517677
v -51.894657 -2.988657 -76.757919
v -28.282467 -2.988657 -103.640862
v -32.217834 -2.988657 -99.160370
v -47.959290 -2.988657 -81.238411
v -40.088570 -2.988657 -90.199379
v 17.030815 5.907201 -0.811007
v -13.566102 5.907201 -55.791248
v -9.369184 5.907201 1.589006
v 5.030804 5.907201 -16.811007
v -12.569197 5.907201 -17.610994
v 0.230816 5.907201 3.989000
v 17.030811 5.907201 -12.011006
v -16.569191 5.907201 -5.610993
v 5.030816 5.907201 2.388996
v 5.830797 5.907201 -27.985268
v -8.569203 5.907201 -21.610994
v -4.569184 5.907201 2.389004
v 1.385361 5.907201 -65.786148
v 9.030791 5.907201 -50.411007
v -8.969206 5.907201 -36.410995
v -10.626526 5.907201 -55.832531
v -21.681080 5.907201 -43.810997
v -47.971264 4.435965 -84.861511
v 10.630793 7.347201 -50.411011
v 5.830797 7.347201 -27.985268
v 19.830795 7.347201 -36.411007
v 20.430794 7.347201 -43.811008
v 9.030791 7.347201 -50.411007
v 1.385361 7.347201 -65.786148
v -53.862358 5.875964 -74.517677
v -51.894657 5.875964 -76.757919
v -28.282467 5.875964 -103.640862
v -32.217834 5.875964 -99.160370
v -47.959290 5.875964 -81.238411
v -40.088570 5.875964 -90.199379
vt -0.844861 2.103267
vt -1.078357 2.103984
vt -1.082888 0.626856
vt -0.563373 -1.108481
vt -0.331910 -1.093856
vt -0.336441 0.383272
vt 0.495292 0.626135
vt 0.747212 0.625363
vt 0.751743 2.102491
vt 1.064018 -1.093856
vt 1.338761 -1.093013
vt 1.334229 0.384115
vt 1.059486 0.383272
vt 1.768470 1.863931
vt 1.437600 1.862916
vt 1.442131 0.385788
vt 0.356340 2.102491
vt 0.098492 2.103282
vt 0.093960 0.626154
vt 0.351809 0.625363
vt 0.756274 0.625363
vt 1.059486 0.626293
vt 1.054955 2.103421
vt 0.751743 2.102490
vt 1.879559 0.385788
vt 1.681048 0.385179
vt 1.685580 -1.091949
vt 1.884090 -1.091340
vt 1.059486 0.386934
vt 1.226508 0.386422
vt 1.231040 1.863550
vt 1.064018 1.864062
vt 1.341821 1.863210
vt 1.337289 0.386082
vt 1.433069 0.385788
vt 0.055270 2.103268
vt -0.083760 2.103694
vt -0.088292 0.626566
vt 0.050738 0.626140
vt 1.447477 -1.092680
vt 1.442945 0.384449
vt 1.054955 0.383272
vt 0.770525 0.415554
vt 0.775057 -1.061574
vt -0.840330 0.626140
vt -0.699305 0.626572
vt -0.703836 2.103700
vt -0.844861 2.103268
vt 1.568005 -1.092310
vt 1.563473 0.384818
vt -0.623821 2.103268
vt -0.694773 2.103486
vt -0.699305 0.626357
vt 0.055270 0.626272
vt 0.495292 2.102491
vt 0.401697 2.102778
vt 0.397165 0.625650
vt -0.849393 0.626140
vt -0.567904 0.368648
vt 0.499823 2.103264
vt 1.773001 0.386803
vt 1.059486 -1.093856
vt -0.628352 0.626140
vt 0.059801 2.103400
vt 0.490760 0.625363
vt 2.082889 1.862916
vt 1.777533 1.863853
vt 1.773001 0.386725
vt 2.078357 0.385788
vt -0.259005 0.383509
vt -0.104133 0.383985
vt 0.050739 0.384460
vt 1.945034 0.383618
vt 1.888622 0.383792
vt 1.884091 -1.093337
vt -0.254474 -1.093618
vt -0.099602 -1.093143
vt 2.053326 -1.093856
vt 1.940503 -1.093510
vn -0.895407 0.000000 0.445249
vn 0.787077 0.000000 -0.616855
vn 0.827940 0.000000 0.560816
vn -0.257663 0.000000 -0.966235
vn 0.503097 0.000000 -0.864230
vn -0.558600 0.000000 0.829437
vn -0.515654 0.000000 -0.856797
vn 0.707106 0.000000 -0.707107
vn 0.948683 0.000000 0.316227
vn 0.999635 0.000000 -0.027017
vn -1.000000 0.000000 0.000000
vn -0.316229 0.000000 -0.948683
vn 0.613718 0.000000 -0.789526
vn -0.997447 0.000000 -0.071410
vn 0.164398 0.000000 -0.986394
vn 0.707107 0.000000 0.707106
vn 0.014042 -0.000000 0.999901
vn 0.000002 0.000000 1.000000
vn 0.316227 0.000000 -0.948684
vn -0.996729 -0.000000 -0.080816
vn -0.371390 0.000000 0.928477
vn -0.751334 0.000000 -0.659922
vn -0.751334 0.000001 -0.659922
vn -0.751331 0.000022 -0.659926
vn 0.000000 -1.000000 0.000000
usemtl Material.001
s off
f 159/175/21 158/176/21 128/177/21
f 139/178/22 142/179/22 172/180/22
f 132/181/23 117/182/23 147/183/23
f 116/184/24 124/185/24 154/186/24
f 116/184/24 154/186/24 146/187/24
f 162/188/25 160/189/25 130/190/25
f 167/191/26 164/192/26 134/193/26
f 167/191/26 134/193/26 137/194/26
f 136/195/27 135/196/27 165/197/27
f 136/195/27 165/197/27 166/198/27
f 153/199/28 148/200/28 118/201/28
f 153/199/28 118/201/28 123/202/28
f 123/203/29 120/204/29 150/205/29
f 123/203/29 150/205/29 153/206/29
f 160/189/30 156/207/30 126/208/30
f 160/189/30 126/208/30 130/209/30
f 122/210/31 116/211/31 146/212/31
f 122/210/31 146/212/31 152/213/31
f 124/185/32 121/214/32 151/215/32
f 124/185/32 151/215/32 154/186/32
f 163/216/33 161/217/33 131/218/33
f 125/219/34 119/220/34 149/221/34
f 125/219/34 149/221/34 155/222/34
f 127/223/35 118/201/35 148/200/35
f 127/223/35 148/200/35 157/224/35
f 156/207/36 150/205/36 120/204/36
f 156/207/36 120/204/36 126/208/36
f 161/225/37 147/226/37 117/227/37
f 138/228/38 134/193/38 164/192/38
f 157/224/39 151/215/39 121/214/39
f 157/224/39 121/214/39 127/223/39
f 137/229/40 136/230/40 166/231/40
f 129/232/21 159/175/21 128/177/21
f 169/233/22 139/178/22 172/180/22
f 162/234/23 132/181/23 147/183/23
f 132/235/25 162/188/25 130/190/25
f 133/236/33 163/216/33 131/218/33
f 131/237/37 161/225/37 117/227/37
f 168/238/38 138/228/38 164/192/38
f 167/239/40 137/229/40 166/231/40
f 152/240/41 149/241/41 119/242/41
f 152/240/41 119/242/41 122/243/41
f 142/179/42 173/244/42 172/180/42
f 142/179/42 175/245/42 173/244/42
f 142/179/42 174/246/42 175/245/42
f 142/179/43 171/247/43 174/246/43
f 142/179/44 170/248/44 171/247/44
f 142/179/42 140/249/42 170/248/42
f 142/179/45 143/250/45 140/249/45
f 143/250/45 145/251/45 140/249/45
f 145/251/45 144/252/45 140/249/45
f 144/252/45 141/253/45 140/249/45
