# Blender v3.0.1 OBJ File: 'many_terrains-01.blend'
# www.blender.org
mtllib many_terrains-01-triangulated.mtl
o Plane
v -2.000000 0.000000 2.000000
v 2.000000 0.000000 2.000000
v -2.000000 0.000000 -2.000000
v 2.000000 0.000000 -2.000000
vt 1.000000 0.000000
vt 0.000000 1.000000
vt 0.000000 0.000000
vt 1.000000 1.000000
vn 0.0000 1.0000 0.0000
usemtl None
s off
f 2/1/1 3/2/1 1/3/1
f 2/1/1 4/4/1 3/2/1
o Plane.001_Plane.002
v -2.000000 0.000000 -2.000000
v 2.000000 0.000000 -2.000000
v -2.000000 0.000000 -10.000000
v 2.000000 0.000000 -10.000000
vt 1.000000 0.000000
vt 0.000000 1.000000
vt 0.000000 0.000000
vt 1.000000 1.000000
vn 0.0000 1.0000 0.0000
usemtl None
s off
f 6/5/2 7/6/2 5/7/2
f 6/5/2 8/8/2 7/6/2
o Plane.002_Plane.005
v -2.000000 2.000000 -2.000000
v -2.000000 0.000000 -2.000000
v -2.000000 2.000000 -10.000000
v -2.000000 0.000000 -10.000000
vt 1.000000 0.000000
vt 0.000000 1.000000
vt 0.000000 0.000000
vt 1.000000 1.000000
vn 1.0000 0.0000 0.0000
usemtl None
s off
f 10/9/3 11/10/3 9/11/3
f 10/9/3 12/12/3 11/10/3
o Plane.003_Plane.006
v 2.000000 2.000000 -10.000000
v 2.000000 0.000000 -10.000000
v 2.000000 2.000000 -2.000000
v 2.000000 0.000000 -2.000000
vt 1.000000 0.000000
vt 0.000000 1.000000
vt 0.000000 0.000000
vt 1.000000 1.000000
vn -1.0000 0.0000 0.0000
usemtl None
s off
f 14/13/4 15/14/4 13/15/4
f 14/13/4 16/16/4 15/14/4
o Plane.004_Plane.007
v -2.000000 2.000000 -10.000000
v -2.000000 0.000000 -10.000000
v 2.000000 2.000000 -10.000000
v 2.000000 0.000000 -10.000000
vt 1.000000 0.000000
vt 0.000000 1.000000
vt 0.000000 0.000000
vt 1.000000 1.000000
vn 0.0000 0.0000 1.0000
usemtl None
s off
f 18/17/5 19/18/5 17/19/5
f 18/17/5 20/20/5 19/18/5
