# Blender 4.3.2
# www.blender.org
o Plane.002
v 8.000000 0.000000 8.000000
v 8.000000 2.000000 8.000000
v 8.000000 0.000000 -8.000000
v 8.000000 2.000000 -8.000000
v -8.000000 0.000000 -8.000000
v -8.000000 2.000000 -8.000000
v -8.000000 0.000000 8.000000
v -8.000000 2.000000 8.000000
vn -1.0000 -0.0000 -0.0000
vn -0.0000 -0.0000 1.0000
vn 1.0000 -0.0000 -0.0000
vn -0.0000 -0.0000 -1.0000
vt 1.000000 0.000000
vt 0.000000 1.000000
vt 0.000000 0.000000
vt 1.000000 1.000000
s 0
f 2/1/1 3/2/1 1/3/1
f 4/4/2 5/2/2 3/2/2
f 6/4/3 7/2/3 5/2/3
f 8/4/4 1/2/4 7/2/4
f 2/1/1 4/4/1 3/2/1
f 4/4/2 6/4/2 5/2/2
f 6/4/3 8/4/3 7/2/3
f 8/4/4 2/4/4 1/2/4
