# Blender v2.64 (sub 0) OBJ File: 'heart_item-01.blend'
# www.blender.org
mtllib heart_item-01.mtl
o Curve_Mesh
v 0.456236 1.007504 0.090000
v 0.024454 0.629055 0.090000
v -0.407329 1.007504 0.090000
v -0.459385 1.271273 0.090000
v -0.327438 1.458302 0.090001
v -0.110160 1.474542 0.090001
v 0.024454 1.305953 0.090001
v 0.159065 1.478449 0.090001
v 0.373679 1.458302 0.090001
v 0.508290 1.276030 0.090001
v 0.456236 1.007504 -0.090000
v 0.024454 0.629055 -0.090000
v -0.407329 1.007504 -0.090000
v -0.459385 1.271273 -0.090000
v -0.327438 1.458302 -0.089999
v -0.110160 1.474542 -0.089999
v 0.024454 1.305953 -0.089999
v 0.159065 1.478449 -0.089999
v 0.373679 1.458302 -0.089999
v 0.508290 1.276030 -0.090000
v 0.456236 1.007504 -0.090000
v 0.456236 1.007504 0.090000
v 0.024454 0.629055 -0.090000
v 0.024454 0.629055 0.090000
v -0.407329 1.007504 -0.090000
v -0.407329 1.007504 0.090000
v -0.459385 1.271273 -0.090000
v -0.459385 1.271273 0.090000
v -0.327438 1.458302 -0.089999
v -0.327438 1.458302 0.090001
v -0.110160 1.474542 -0.089999
v -0.110160 1.474542 0.090001
v 0.024454 1.305953 -0.089999
v 0.024454 1.305953 0.090001
v 0.159065 1.478449 -0.089999
v 0.159065 1.478449 0.090001
v 0.373679 1.458302 -0.089999
v 0.373679 1.458302 0.090001
v 0.508290 1.276030 -0.090000
v 0.508290 1.276030 0.090001
vt 0.763177 0.525704
vt 0.660598 0.452677
vt 0.666937 0.325019
vt 0.543056 0.348166
vt 0.453190 0.258034
vt 0.466256 0.124967
vt 0.892281 0.496507
vt 0.971784 0.357910
vt 0.589973 0.028220
vt 0.925362 0.025740
vt 0.664957 0.325852
vt 0.539593 0.350769
vt 0.452367 0.259955
vt 0.762443 0.527523
vt 0.660152 0.451785
vt 0.892174 0.495163
vt 0.462395 0.127972
vt 0.587894 0.029079
vt 0.969814 0.358642
vt 0.923282 0.026488
vt 0.040385 0.461531
vt 0.040000 0.336057
vt 0.145147 0.335735
vt 0.145532 0.461208
vt 0.291230 0.466469
vt 0.290740 0.306689
vt 0.395888 0.306366
vt 0.396378 0.466146
vt 0.291505 0.556033
vt 0.396652 0.555711
vt 0.041053 0.253131
vt 0.041304 0.171414
vt 0.146451 0.171737
vt 0.146200 0.253454
vt 0.289927 0.041657
vt 0.395074 0.041335
vt 0.289112 0.307382
vt 0.288630 0.464435
vt 0.183483 0.464112
vt 0.183965 0.307059
vt 0.144132 0.255259
vt 0.144388 0.338892
vt 0.039241 0.339214
vt 0.038984 0.255582
vt 0.039264 0.172962
vt 0.039653 0.046135
vt 0.144800 0.046457
vt 0.144411 0.173285
vt 0.288347 0.556697
vt 0.183200 0.556374
vt 0.184780 0.041335
vn -0.000000 -0.000001 1.000000
vn 0.000000 0.000001 -1.000000
vn -0.396100 0.918180 0.000000
vn 0.491775 0.870693 0.000000
vn 0.975372 0.220466 0.000000
vn 0.867153 -0.498001 0.000000
vn 0.399701 0.916623 0.000000
vn -0.005554 0.999969 0.000000
vn 0.000000 -1.000000 0.000000
vn -0.866329 -0.499466 0.000000
vn -0.978057 0.208228 0.000000
vn -0.492965 0.870022 0.000000
usemtl Material.001
s off
f 9/1/1 8/2/1 7/3/1
f 7/3/1 6/4/1 5/5/1
f 7/3/1 5/5/1 4/6/1
f 9/1/1 7/3/1 10/7/1
f 7/3/1 4/6/1 10/7/1
f 4/6/1 1/8/1 10/7/1
f 3/9/1 1/8/1 4/6/1
f 2/10/1 1/8/1 3/9/1
f 17/11/2 18/12/2 19/13/2
f 17/11/2 15/14/2 16/15/2
f 17/11/2 14/16/2 15/14/2
f 17/11/2 19/13/2 20/17/2
f 17/11/2 20/17/2 14/16/2
f 20/17/2 11/18/2 14/16/2
f 11/18/2 13/19/2 14/16/2
f 11/18/2 12/20/2 13/19/2
s 1
f 36/21/3 38/22/4 37/23/4
f 36/21/3 37/23/4 35/24/3
f 40/25/5 22/26/6 21/27/6
f 40/25/5 21/27/6 39/28/5
f 38/29/4 40/25/5 39/28/5
f 38/29/4 39/28/5 37/30/4
f 32/31/7 34/32/8 33/33/8
f 32/31/7 33/33/8 31/34/7
f 22/26/6 24/35/9 23/36/9
f 22/26/6 23/36/9 21/27/6
f 26/37/10 28/38/11 27/39/11
f 26/37/10 27/39/11 25/40/10
f 34/41/8 36/42/3 35/43/3
f 34/41/8 35/43/3 33/44/8
f 30/45/12 32/46/7 31/47/7
f 30/45/12 31/47/7 29/48/12
f 28/38/11 30/49/12 29/50/12
f 28/38/11 29/50/12 27/39/11
f 24/35/9 26/37/10 25/40/10
f 24/35/9 25/40/10 23/51/9
