# Blender v2.76 (sub 0) OBJ File: ''
# www.blender.org
o Cube
v 0.500000 -0.400000 -0.400000
v 0.400000 -0.500000 -0.400000
v 0.400000 -0.400000 -0.500000
v 0.470710 -0.470711 -0.400000
v 0.457735 -0.457735 -0.457735
v 0.400000 -0.470711 -0.470710
v 0.470710 -0.400000 -0.470710
v 0.500000 -0.400000 0.400000
v 0.400000 -0.400000 0.500000
v 0.400000 -0.500000 0.400000
v 0.470710 -0.400000 0.470710
v 0.457735 -0.457735 0.457735
v 0.400000 -0.470711 0.470710
v 0.470710 -0.470711 0.400000
v -0.400000 -0.400000 0.500000
v -0.500000 -0.400000 0.400000
v -0.400000 -0.500000 0.400000
v -0.470711 -0.400000 0.470710
v -0.457735 -0.457735 0.457735
v -0.470710 -0.470711 0.400000
v -0.400000 -0.470711 0.470710
v -0.400000 -0.400000 -0.500000
v -0.400000 -0.500000 -0.400000
v -0.500000 -0.400000 -0.400000
v -0.400000 -0.470711 -0.470711
v -0.457735 -0.457735 -0.457735
v -0.470710 -0.470711 -0.400000
v -0.470710 -0.400000 -0.470711
v 0.400000 0.400000 -0.500000
v 0.400000 0.500000 -0.400000
v 0.500000 0.400000 -0.400000
v 0.400000 0.470711 -0.470710
v 0.457735 0.457735 -0.457735
v 0.470711 0.470711 -0.400000
v 0.470711 0.400000 -0.470710
v 0.400000 0.400000 0.500000
v 0.500000 0.400000 0.400000
v 0.400000 0.500000 0.400000
v 0.470710 0.400000 0.470711
v 0.457735 0.457735 0.457735
v 0.470710 0.470711 0.400000
v 0.400000 0.470711 0.470711
v -0.500000 0.400000 0.400000
v -0.400000 0.400000 0.500000
v -0.400000 0.500000 0.400000
v -0.470711 0.400000 0.470710
v -0.457735 0.457735 0.457735
v -0.400000 0.470711 0.470710
v -0.470711 0.470711 0.400000
v -0.500000 0.400000 -0.400000
v -0.400000 0.500000 -0.400000
v -0.400000 0.400000 -0.500000
v -0.470710 0.470711 -0.400000
v -0.457735 0.457735 -0.457735
v -0.400000 0.470711 -0.470710
v -0.470710 0.400000 -0.470710
vt 0.025037 0.199411
vt 0.308296 0.199411
vt 0.308296 0.475589
vt 0.025037 0.475589
vt 0.974963 0.475589
vt 0.691704 0.475589
vt 0.691703 0.199411
vt 0.974963 0.199411
vt 0.358370 0.199411
vt 0.641630 0.199411
vt 0.641630 0.475589
vt 0.358370 0.475589
vt 0.967858 0.800589
vt 0.689383 0.800589
vt 0.689383 0.524411
vt 0.967858 0.524411
vt 0.308297 0.800589
vt 0.025037 0.800589
vt 0.025037 0.524411
vt 0.308296 0.524411
vt 0.640155 0.524411
vt 0.640155 0.800589
vt 0.361680 0.800589
vt 0.361680 0.524411
vt 0.333333 0.800589
vt 0.328739 0.820521
vt 0.308297 0.825000
vt 0.642053 0.500000
vt 0.662991 0.504479
vt 0.666667 0.524411
vt 0.308296 0.175000
vt 0.328739 0.179480
vt 0.333333 0.199411
vt 0.308296 0.500000
vt 0.328739 0.504480
vt 0.333333 0.524411
vt 1.000000 0.475589
vt 0.995406 0.495521
vt 0.974963 0.500000
vt 0.666667 0.800589
vt 0.662991 0.820520
vt 0.642053 0.825000
vt 0.974963 0.175000
vt 0.995406 0.179480
vt 1.000000 0.199411
vt 0.337928 0.179480
vt 0.358370 0.175000
vt 0.363578 0.825000
vt 0.344321 0.820521
vt 0.338964 0.800589
vt 0.333333 0.475589
vt 0.328739 0.495521
vt 0.338964 0.524411
vt 0.344321 0.504479
vt 0.363578 0.500000
vt 0.358370 0.500000
vt 0.337928 0.495521
vt 0.000000 0.199411
vt 0.004594 0.179480
vt 0.025037 0.175000
vt 0.994370 0.800589
vt 0.990694 0.820520
vt 0.969756 0.825000
vt 0.025037 0.825000
vt 0.004594 0.820521
vt 0.000000 0.800589
vt 0.691704 0.500000
vt 0.671261 0.495520
vt 0.666667 0.475589
vt 0.000000 0.524411
vt 0.004594 0.504480
vt 0.025037 0.500000
vt 0.969756 0.500000
vt 0.990694 0.504479
vt 0.994370 0.524411
vt 0.641630 0.175000
vt 0.662072 0.179480
vt 0.666667 0.199411
vt 0.671261 0.179480
vt 0.691703 0.175000
vt 0.672024 0.504480
vt 0.691281 0.500000
vt 0.662072 0.495520
vt 0.641630 0.500000
vt 0.691281 0.825000
vt 0.672024 0.820521
vt 0.004594 0.495521
vt 0.000000 0.475589
vn 0.000000 0.000000 -1.000000
vn -0.000000 -0.000000 1.000000
vn -1.000000 -0.000000 -0.000000
vn 0.000000 1.000000 -0.000000
vn 1.000000 -0.000000 0.000000
vn 0.000000 -1.000000 -0.000000
vn 0.967300 -0.179400 -0.179400
vn 0.696500 -0.696500 -0.172600
vn 0.577300 -0.577300 -0.577300
vn 0.696500 -0.172600 -0.696500
vn 0.179400 -0.967300 -0.179400
vn 0.172600 -0.696500 -0.696500
vn 0.179400 -0.179400 -0.967300
vn 0.967300 -0.179400 0.179400
vn 0.696500 -0.172600 0.696500
vn 0.577300 -0.577300 0.577300
vn 0.696500 -0.696500 0.172600
vn 0.179400 -0.179400 0.967300
vn 0.172600 -0.696500 0.696500
vn 0.179400 -0.967300 0.179400
vn -0.179400 -0.179400 0.967300
vn -0.696500 -0.172600 0.696500
vn -0.577300 -0.577300 0.577300
vn -0.172600 -0.696500 0.696500
vn -0.967300 -0.179400 0.179400
vn -0.696500 -0.696500 0.172600
vn -0.179400 -0.967300 0.179400
vn -0.179400 -0.179400 -0.967300
vn -0.172600 -0.696500 -0.696500
vn -0.577300 -0.577300 -0.577300
vn -0.696500 -0.172600 -0.696500
vn -0.179400 -0.967300 -0.179400
vn -0.696500 -0.696500 -0.172600
vn -0.967300 -0.179400 -0.179400
vn 0.179400 0.179400 -0.967300
vn 0.172600 0.696500 -0.696500
vn 0.577300 0.577300 -0.577300
vn 0.696500 0.172600 -0.696500
vn 0.179400 0.967300 -0.179400
vn 0.696500 0.696500 -0.172600
vn 0.967300 0.179400 -0.179400
vn 0.179400 0.179400 0.967300
vn 0.696500 0.172600 0.696500
vn 0.577300 0.577300 0.577300
vn 0.172600 0.696500 0.696500
vn 0.967300 0.179400 0.179400
vn 0.696500 0.696500 0.172600
vn 0.179400 0.967300 0.179400
vn -0.967300 0.179400 0.179400
vn -0.696500 0.172600 0.696500
vn -0.577300 0.577300 0.577300
vn -0.696500 0.696500 0.172600
vn -0.179400 0.179400 0.967300
vn -0.172600 0.696500 0.696500
vn -0.179400 0.967300 0.179400
vn -0.967300 0.179400 -0.179400
vn -0.696500 0.696500 -0.172600
vn -0.577300 0.577300 -0.577300
vn -0.696500 0.172600 -0.696500
vn -0.179400 0.967300 -0.179400
vn -0.172600 0.696500 -0.696500
vn -0.179400 0.179400 -0.967300
s off
f 29/1/1 3/2/1 22/3/1 52/4/1
f 9/5/2 36/6/2 44/7/2 15/8/2
f 16/9/3 43/10/3 50/11/3 24/12/3
f 30/13/4 51/14/4 45/15/4 38/16/4
f 1/17/5 31/18/5 37/19/5 8/20/5
f 2/21/6 10/22/6 17/23/6 23/24/6
s 6
f 1/17/7 4/25/8 5/26/9 7/27/10
f 2/21/11 6/28/12 5/29/9 4/30/8
f 3/2/13 7/31/10 5/32/9 6/33/12
f 8/20/14 11/34/15 12/35/16 14/36/17
f 9/5/18 13/37/19 12/38/16 11/39/15
f 10/22/20 14/40/17 12/41/16 13/42/19
f 15/8/21 18/43/22 19/44/23 21/45/24
f 16/9/25 20/33/26 19/46/23 18/47/22
f 17/23/27 21/48/24 19/49/23 20/50/26
f 22/3/28 25/51/29 26/52/30 28/34/31
f 23/24/32 27/53/33 26/54/30 25/55/29
f 24/12/34 28/56/31 26/57/30 27/51/33
f 29/1/35 32/58/36 33/59/37 35/60/38
f 30/13/39 34/61/40 33/62/37 32/63/36
f 31/18/41 35/64/38 33/65/37 34/66/40
f 36/6/42 39/67/43 40/68/44 42/69/45
f 37/19/46 41/70/47 40/71/44 39/72/43
f 38/16/48 42/73/45 40/74/44 41/75/47
f 43/10/49 46/76/50 47/77/51 49/78/52
f 44/7/53 48/78/54 47/79/51 46/80/50
f 45/15/55 49/30/52 47/81/51 48/82/54
f 50/11/56 53/69/57 54/83/58 56/84/59
f 51/14/60 55/85/61 54/86/58 53/40/57
f 52/4/62 56/72/59 54/87/58 55/88/61
f 1/17/7 8/20/14 14/36/17 4/25/8
f 4/30/8 14/40/17 10/22/20 2/21/11
f 2/21/11 23/24/32 25/55/29 6/28/12
f 6/33/12 25/51/29 22/3/28 3/2/13
f 3/2/13 29/1/35 35/60/38 7/31/10
f 7/27/10 35/64/38 31/18/41 1/17/7
f 9/5/18 15/8/21 21/45/24 13/37/19
f 13/42/19 21/48/24 17/23/27 10/22/20
f 8/20/14 37/19/46 39/72/43 11/34/15
f 11/39/15 39/67/43 36/6/42 9/5/18
f 16/9/25 24/12/34 27/51/33 20/33/26
f 20/50/26 27/53/33 23/24/32 17/23/27
f 15/8/21 44/7/53 46/80/50 18/43/22
f 18/47/22 46/76/50 43/10/49 16/9/25
f 24/12/34 50/11/56 56/84/59 28/56/31
f 28/34/31 56/72/59 52/4/62 22/3/28
f 30/13/39 38/16/48 41/75/47 34/61/40
f 34/66/40 41/70/47 37/19/46 31/18/41
f 29/1/35 52/4/62 55/88/61 32/58/36
f 32/63/36 55/85/61 51/14/60 30/13/39
f 38/16/48 45/15/55 48/82/54 42/73/45
f 42/69/45 48/78/54 44/7/53 36/6/42
f 45/15/55 51/14/60 53/40/57 49/30/52
f 49/78/52 53/69/57 50/11/56 43/10/49
